PathFileType	4	(X/Y/Z)	D:\Research_projects\MuscleProsody\BulkSports2Dtrack\RetrackedSports2D\p1_sample60_cam1\p1_sample60_cam1_Sports2D\p1_sample60_cam1_Sports2D_m_person00.trc
DataRate	CameraRate	NumFrames	NumMarkers	Units	OrigDataRate	OrigDataStartFrame	OrigNumFrames
60	60	7	22	m	60	390	780
Frame#	Time	Hip			RHip			RKnee			RAnkle			RBigToe			RSmallToe			RHeel			LHip			LKnee			LAnkle			LBigToe			LSmallToe			LHeel			Neck			Head			Nose			RShoulder			RElbow			RWrist			LShoulder			LElbow			LWrist		
		X1	Y1	Z1	X2	Y2	Z2	X3	Y3	Z3	X4	Y4	Z4	X5	Y5	Z5	X6	Y6	Z6	X7	Y7	Z7	X8	Y8	Z8	X9	Y9	Z9	X10	Y10	Z10	X11	Y11	Z11	X12	Y12	Z12	X13	Y13	Z13	X14	Y14	Z14	X15	Y15	Z15	X16	Y16	Z16	X17	Y17	Z17	X18	Y18	Z18	X19	Y19	Z19	X20	Y20	Z20	X21	Y21	Z21	X22	Y22	Z22
390	6.5	1.8517103267526311	0.6670526837855761	0.0301	1.7570001903309909	0.6733511748220593	0.0301	1.5317128454660238	0.3788392656055034	0.129	1.2718802528088209	0.16801515082624505	0.023	1.2978944546602278	-0.006201773320684126	0.2179	1.2337636743755813	0.036746442110034715	0.1804	1.2072385412401037	0.16267111937088546	-0.0119	1.9042063831312208	0.6093552974155297	0.0301	1.6566363295210786	0.33606669865828825	0.129	1.412671078984452	0.1433567457249515	0.023	1.42867585607941	-0.006650056731431495	0.2179	1.4751173729119829	0.01042068203818885	0.1804	1.3572525008548655	0.12144965844314647	-0.0119	2.1587901638308793	1.1089199408839765	0.0008	2.4102577837028805	1.272688561271271	0.0655	2.342323581634032	1.0931488548322532	0.1076	1.9643700663616628	1.1103993404974408	-0.01275	1.66709442457839	0.978697816824042	0.0702	1.3874629144275534	0.8853570362779222	0.1076	2.2888528755883444	1.0522832120327212	-0.01275	2.4923193605095837	1.0600513309475357	0.0702	2.737017302449117	1.0824218976906632	0.1076
391	6.516666666666667	1.850220992008519	0.668172021207808	0.0301	1.7546635205785903	0.6750564324371336	0.0301	1.5297478559402542	0.38014130587562234	0.129	1.2715224306651918	0.16770363443895606	0.023	1.2975893649807189	-0.0062343029533109525	0.2179	1.2329296508811491	0.0372635572730179	0.1804	1.2071643930866205	0.1620337046281525	-0.0119	1.9028279208882308	0.6094192973618019	0.0301	1.6551207866049253	0.336335680359197	0.129	1.4122117138563823	0.14295868636214157	0.023	1.4281975184930278	-0.006759553796443181	0.2179	1.4747269314555063	0.010058633654102457	0.1804	1.357002647003799	0.1210722268093066	-0.0119	2.157551445732011	1.1113134297258545	0.0008	2.4077914880820233	1.2773299733171888	0.0655	2.3409349113658258	1.0975994333395418	0.1076	1.9614374506237782	1.1129243007517484	-0.01275	1.664762446309162	0.9786375272502985	0.0702	1.3887480428092074	0.8801268335073659	0.1076	2.2887817212163157	1.0519509475013602	-0.01275	2.4903973214826136	1.0548638173113292	0.0702	2.7356330085916767	1.0745130360733637	0.1076
392	6.533333333333333	1.8483148679587627	0.6697591179690856	0.0301	1.7519047328065296	0.6775984991270609	0.0301	1.526983380246023	0.38214248309443766	0.129	1.2711377902338303	0.16735989389593275	0.023	1.2974427896373446	-0.006233899141971456	0.2179	1.2320255354135508	0.037844479321382504	0.1804	1.2071216642519436	0.16125437414659785	-0.0119	1.9011641415800529	0.6099220277602739	0.0301	1.6532090577865617	0.3369039230051039	0.129	1.4115828259622116	0.14257044880068925	0.023	1.4279909144685021	-0.006878962052934418	0.2179	1.4743242635089489	0.009642756056798908	0.1804	1.356639696753538	0.1205874718044383	-0.0119	2.1575470951870837	1.1139852976938867	0.0008	2.4071531560765225	1.2819799708689705	0.0655	2.340714836251156	1.1026113251674747	0.1076	1.9593909550758408	1.1162567880859238	-0.01275	1.6639571275660257	0.9806502093762741	0.0702	1.3923453641240822	0.8784155022468754	0.1076	2.2894022968725563	1.050981090504762	-0.01275	2.488163567303695	1.0471117656637379	0.0702	2.7340131188319083	1.0625680954404564	0.1076
393	6.55	1.8460714193028658	0.6717109791956294	0.0301	1.7488219984160642	0.6808083209869921	0.0301	1.5234587689496388	0.3847906050088894	0.129	1.2707353922291527	0.1670090183813163	0.023	1.2973976469541473	-0.006209292766907785	0.2179	1.2310391011336506	0.03848208827788656	0.1804	1.2071538031763602	0.16034879698151028	-0.0119	1.8992234308867022	0.6107715617974596	0.0301	1.6508922952047171	0.3377779628932192	0.129	1.4108312314138374	0.1422088371554968	0.023	1.428055338747754	-0.0069744044285267	0.2179	1.4739229347530678	0.009216537694867423	0.1804	1.356158033966445	0.12003918935911845	-0.0119	2.1586707785976462	1.1169470160731763	0.0008	2.408079148134588	1.2866710639725918	0.0655	2.3416138808666065	1.1081745323701893	0.1076	1.9581656003190564	1.120342115735923	-0.01275	1.6646460211818435	0.984414101564741	0.0702	1.398308936368582	0.8797018367554709	0.1076	2.2905360306093043	1.0494854539711966	-0.01275	2.485227547913223	1.0369927275504578	0.0702	2.7317314689811742	1.0468418975378493	0.1076
394	6.566666666666666	1.8435788267677995	0.6739100514335478	0.0301	1.7455145332172868	0.684477807950456	0.0301	1.5192447033177896	0.38800880424747664	0.129	1.2703093061091433	0.16669313913299244	0.023	1.2973815761952332	-0.006156359452167988	0.2179	1.2299538287145209	0.03916707047900979	0.1804	1.2073066554683465	0.15933662812830707	-0.0119	1.8970189406246476	0.6118555121914908	0.0301	1.6482028628673737	0.33895266259466433	0.129	1.4100223388910709	0.14187680823954957	0.023	1.4283586332774802	-0.00701997018625888	0.2179	1.4735229893694588	0.008814084596112524	0.1804	1.3555532682926825	0.11947263070728634	-0.0119	2.160803676590068	1.120185481890934	0.0008	2.410276524565763	1.2914145222238913	0.0655	2.3435610175465817	1.1142376874446196	0.1076	1.9577141150764683	1.1251117811430327	-0.01275	1.6667809004798257	0.9895662773969529	0.0702	1.4066879747792043	0.8833797404071297	0.1076	2.2919471537516185	1.0475663184194237	-0.01275	2.481113457667108	1.0247713197181612	0.0702	2.7282808311121287	1.0276716044175365	0.1076
395	6.583333333333333	1.8409227399536694	0.6762428673361728	0.0301	1.7420903857856769	0.6883925907824102	0.0301	1.5144470945842907	0.3917032314605364	0.129	1.2698484239732366	0.16645737851425013	0.023	1.2973056725606311	-0.006066943202752197	0.2179	1.2287435472336368	0.03988847596146503	0.1804	1.2076259868130403	0.15824161230996042	-0.0119	1.8945711114580115	0.6130659971554477	0.0301	1.6452246502931127	0.3404115107697158	0.129	1.4092289660930575	0.1415765797709194	0.023	1.4288446076505095	-0.0070040522516664015	0.2179	1.4731112973096383	0.008456360125996444	0.1804	1.3548414677131315	0.11893232818291773	-0.0119	2.1638060503047614	1.1236705821214188	0.0008	2.41345666071188	1.296203629752149	0.0655	2.346457535200088	1.1207030331867045	0.1076	1.9579797916668624	1.1304564619573152	-0.01275	1.6702997957612598	0.9957173165261846	0.0702	1.417555977104037	0.8887892190466319	0.1076	2.2933800161035474	1.0453374372668824	-0.01275	2.4753355508257875	1.0107744641102887	0.0702	2.7231447698481714	1.005443008174962	0.1076
396	6.6	1.8381876795073706	0.6786225744279448	0.0301	1.7386866414458884	0.6923794287994136	0.0301	1.5092256697926933	0.3957755755673913	0.129	1.2693384246696142	0.16632619926409106	0.023	1.297063921532766	-0.005940028349441443	0.2179	1.2273676251854544	0.04063568071573576	0.1804	1.2081391065215676	0.15708685883476065	-0.0119	1.8919300148713107	0.614343836821236	0.0301	1.6421014886815277	0.3421340057021171	0.129	1.4085186238860785	0.1413242182432294	0.023	1.4294341020696766	-0.006931502233140429	0.2179	1.4726610300840435	0.008150144306376545	0.1804	1.3540695356977037	0.11846301645011197	-0.0119	2.1675047466523347	1.127365658823818	0.0008	2.4173637663823726	1.3010131222559114	0.0655	2.3501829047750666	1.127428089254215	0.1076	1.9588673973146993	1.1362099325414077	-0.01275	1.6751116867755087	1.0024511277745034	0.0702	1.4310092138385142	0.8952384831949606	0.1076	2.2945908661855645	1.0429414729095856	-0.01275	2.4674692671847662	0.995393745033248	0.0702	2.7158506798739506	0.9805681485704905	0.1076
